<svg
   role="heading"
   viewBox="0 0 83.693001 19.99198"
   id="heading"
   xmlns="http://www.w3.org/2000/svg"
   style="overflow: visible"
>
  <desc>
    <span class="svg-fallback">
      Katarzyna Ziomek-Zdanowicz
    </span>
  </desc>
  <g transform="translate(-46.599928,-101.38667)" filter="url(#shadow)">
    <g aria-label="KATARZYNA ZIOMEK-ZDANOWICZ">
      <path
         d="m 68.338094,108.0119 q -0.116417,-0.37041 -0.338667,-0.79375 -0.211667,-0.43391 -0.47625,-0.83608 -0.264583,-0.41275 -0.560917,-0.762 -0.28575,-0.35983 -0.550333,-0.60325 v 2.99508 h -1.30175 v -6.55108 h 1.30175 v 2.71992 q 0.232833,-0.29634 0.486833,-0.65617 0.254,-0.35983 0.47625,-0.71967 0.232834,-0.35983 0.423334,-0.70908 0.1905,-0.34925 0.3175,-0.635 h 1.471083 q -0.148167,0.28575 -0.359833,0.65617 -0.201084,0.35983 -0.465667,0.762 -0.264583,0.39158 -0.5715,0.80433 -0.296333,0.41275 -0.624417,0.79375 0.328084,0.3175 0.66675,0.73025 0.338667,0.41275 0.635,0.889 0.306917,0.46567 0.550334,0.96308 0.243416,0.48684 0.391583,0.9525 z"
         ></path>
      <path
         d="m 73.72501,108.0119 -0.306916,-1.51341 h -1.74625 l -0.296334,1.51341 h -1.354666 q 0.465666,-1.93675 0.941916,-3.52425 0.47625,-1.59808 0.92075,-3.02683 h 1.418167 q 0.465666,1.43933 0.92075,3.05858 0.465666,1.60867 0.899583,3.4925 z m -1.164166,-5.28108 q -0.105834,0.37042 -0.201084,0.70908 -0.08467,0.32809 -0.169333,0.65617 -0.07408,0.3175 -0.148167,0.64558 -0.0635,0.32809 -0.127,0.67734 h 1.280584 q -0.0635,-0.34925 -0.127,-0.67734 -0.0635,-0.32808 -0.148167,-0.64558 -0.07408,-0.32808 -0.169333,-0.65617 -0.08467,-0.33866 -0.1905,-0.70908 z"
         ></path>
      <path
         d="m 80.244343,101.46082 v 1.0795 H 78.51926 v 5.47158 h -1.312333 v -5.47158 h -1.725084 v -1.0795 z"
         ></path>
      <path
         d="m 84.308344,108.0119 -0.306917,-1.51341 h -1.74625 l -0.296333,1.51341 h -1.354667 q 0.465667,-1.93675 0.941917,-3.52425 0.47625,-1.59808 0.92075,-3.02683 h 1.418166 q 0.465667,1.43933 0.92075,3.05858 0.465667,1.60867 0.899584,3.4925 z m -1.164167,-5.28108 q -0.105833,0.37042 -0.201083,0.70908 -0.08467,0.32809 -0.169334,0.65617 -0.07408,0.3175 -0.148166,0.64558 -0.0635,0.32809 -0.127,0.67734 h 1.280583 q -0.0635,-0.34925 -0.127,-0.67734 -0.0635,-0.32808 -0.148167,-0.64558 -0.07408,-0.32808 -0.169333,-0.65617 -0.08467,-0.33866 -0.1905,-0.70908 z"
         ></path>
      <path
         d="m 88.065426,101.38674 q 0.560917,0 1.016,0.127 0.455084,0.127 0.783167,0.39158 0.328083,0.26458 0.497417,0.67733 0.179916,0.40217 0.179916,0.9525 0,0.5715 -0.232833,1.03717 -0.232833,0.46567 -0.772583,0.70908 0.179916,0.27517 0.381,0.61384 0.201083,0.32808 0.391583,0.6985 0.1905,0.35983 0.359833,0.73025 0.179917,0.35983 0.306917,0.68791 h -1.36525 q -0.243417,-0.635 -0.5715,-1.21708 -0.3175,-0.59267 -0.687917,-1.19592 h -0.677333 v 2.413 h -1.30175 v -6.45583 q 0.1905,-0.0423 0.41275,-0.0741 0.232833,-0.0423 0.465667,-0.0529 0.232833,-0.0212 0.4445,-0.0318 0.211666,-0.0106 0.370416,-0.0106 z m 1.153584,2.13783 q 0,-0.51858 -0.3175,-0.762 -0.3175,-0.24342 -0.836084,-0.24342 -0.07408,0 -0.179916,0.0106 -0.105834,0 -0.211667,0.0212 v 1.9685 h 0.28575 q 0.66675,0 0.963083,-0.254 0.296334,-0.26458 0.296334,-0.74083 z"
         ></path>
      <path
         d="m 95.801842,102.37099 q -0.455083,0.6985 -0.836083,1.31233 -0.381,0.61383 -0.709083,1.17475 -0.328084,0.55033 -0.624417,1.06892 -0.28575,0.508 -0.550333,1.00541 h 2.815166 v 1.0795 h -4.318 v -0.75141 q 0.232834,-0.45509 0.497417,-0.9525 0.264583,-0.508 0.592667,-1.0795 0.328083,-0.5715 0.709083,-1.23825 0.391583,-0.66675 0.85725,-1.44992 h -2.518833 v -1.0795 h 4.085166 z"
         ></path>
      <path
         d="m 99.072094,104.4559 q 0.116416,-0.24341 0.264583,-0.61383 0.15875,-0.37042 0.306917,-0.78317 0.15875,-0.41275 0.296333,-0.83608 0.148163,-0.42333 0.264583,-0.762 h 1.34408 q -0.20108,0.53975 -0.40216,1.04775 -0.20109,0.508 -0.42334,1.00542 -0.22225,0.49741 -0.47625,0.99483 -0.253996,0.48683 -0.55033,1.00542 v 2.49766 h -1.312333 v -2.48708 q -0.582083,-1.02658 -1.026583,-2.00025 -0.433917,-0.98425 -0.836084,-2.06375 h 1.397 q 0.243417,0.762 0.53975,1.55575 0.296334,0.78317 0.613834,1.43933 z"
         ></path>
      <path
         d="m 105.43267,108.0119 q -0.4445,-1.09008 -0.97366,-2.16958 -0.51859,-1.09008 -1.12184,-2.18017 v 4.34975 h -1.17475 v -6.55108 h 1.04775 q 0.29634,0.46567 0.59267,1.016 0.29633,0.53975 0.5715,1.0795 0.28575,0.53975 0.51858,1.04775 0.24342,0.508 0.41275,0.889 v -4.03225 h 1.17475 v 6.55108 z"
         ></path>
      <path
         d="m 110.76668,108.0119 -0.30692,-1.51341 h -1.74625 l -0.29633,1.51341 h -1.35467 q 0.46567,-1.93675 0.94192,-3.52425 0.47625,-1.59808 0.92075,-3.02683 h 1.41816 q 0.46567,1.43933 0.92075,3.05858 0.46567,1.60867 0.89959,3.4925 z m -1.16417,-5.28108 q -0.10583,0.37042 -0.20108,0.70908 -0.0847,0.32809 -0.16934,0.65617 -0.0741,0.3175 -0.14816,0.64558 -0.0635,0.32809 -0.127,0.67734 h 1.28058 q -0.0635,-0.34925 -0.127,-0.67734 -0.0635,-0.32808 -0.14817,-0.64558 -0.0741,-0.32808 -0.16933,-0.65617 -0.0847,-0.33866 -0.1905,-0.70908 z"
         ></path>
      <path
         d="m 50.822678,115.60015 q -0.455084,0.6985 -0.836084,1.31233 -0.381,0.61384 -0.709083,1.17475 -0.328083,0.55034 -0.624417,1.06892 -0.28575,0.508 -0.550333,1.00542 h 2.815167 v 1.0795 h -4.318 v -0.75142 q 0.232833,-0.45508 0.497416,-0.9525 0.264584,-0.508 0.592667,-1.0795 0.328083,-0.5715 0.709083,-1.23825 0.391584,-0.66675 0.85725,-1.44992 h -2.518833 v -1.0795 h 4.085167 z"
         ></path>
      <path
         d="m 51.976261,121.24107 v -1.0795 h 1.42875 v -4.39209 h -1.42875 v -1.0795 h 4.15925 v 1.0795 h -1.418167 v 4.39209 h 1.418167 v 1.0795 z"
         ></path>
      <path
         d="m 58.305094,117.96023 q 0,0.47625 0.03175,0.89959 0.04233,0.41275 0.148167,0.71966 0.116416,0.30692 0.3175,0.48684 0.201083,0.17991 0.53975,0.17991 0.328083,0 0.529166,-0.17991 0.211667,-0.17992 0.3175,-0.48684 0.116417,-0.3175 0.148167,-0.73025 0.04233,-0.41275 0.04233,-0.889 0,-0.47625 -0.04233,-0.889 -0.03175,-0.42333 -0.148167,-0.73025 -0.105833,-0.30691 -0.306916,-0.48683 -0.201084,-0.17992 -0.53975,-0.17992 -0.338667,0 -0.53975,0.17992 -0.201084,0.17992 -0.3175,0.49742 -0.105834,0.30691 -0.148167,0.71966 -0.03175,0.41275 -0.03175,0.889 z m -1.322917,0 q 0,-1.69333 0.624417,-2.55058 0.624417,-0.86783 1.735667,-0.86783 1.153583,0 1.756833,0.86783 0.60325,0.85725 0.60325,2.55058 0,1.69334 -0.613833,2.56117 -0.613834,0.85725 -1.735667,0.85725 -1.153583,0 -1.767417,-0.85725 -0.60325,-0.86783 -0.60325,-2.56117 z"
         ></path>
      <path
         d="m 63.692011,114.68998 q 0.07408,0.22225 0.179917,0.5715 0.116416,0.34925 0.243416,0.75142 0.127,0.40217 0.254,0.81492 0.127,0.41275 0.243417,0.762 0.127,-0.39159 0.264583,-0.80434 0.137584,-0.42333 0.264584,-0.80433 0.127,-0.39158 0.232833,-0.73025 0.105833,-0.33867 0.1905,-0.56092 h 1.0795 q 0.07408,0.85725 0.137583,1.67217 0.07408,0.81492 0.116417,1.61925 0.05292,0.79375 0.08467,1.60867 0.03175,0.80433 0.05292,1.651 h -1.195916 l 0.0635,-5.09059 -0.804334,2.77284 h -0.9525 l -0.772583,-2.77284 0.05292,5.09059 h -1.195917 q 0.03175,-0.80434 0.0635,-1.67217 0.04233,-0.86783 0.08467,-1.72508 0.04233,-0.85725 0.09525,-1.66159 0.0635,-0.80433 0.137583,-1.49225 z"
         ></path>
      <path
         d="m 67.94651,121.24107 v -6.55109 h 3.96875 v 1.0795 h -2.667 v 1.47109 h 2.31775 v 1.0795 h -2.31775 v 1.8415 h 2.899834 v 1.0795 z"
         ></path>
      <path
         d="m 76.275593,121.24107 q -0.116417,-0.37042 -0.338667,-0.79375 -0.211666,-0.43392 -0.47625,-0.83609 -0.264583,-0.41275 -0.560916,-0.762 -0.28575,-0.35983 -0.550334,-0.60325 v 2.99509 h -1.30175 v -6.55109 h 1.30175 v 2.71992 q 0.232834,-0.29633 0.486834,-0.65617 0.254,-0.35983 0.47625,-0.71966 0.232833,-0.35984 0.423333,-0.70909 0.1905,-0.34925 0.3175,-0.635 h 1.471083 q -0.148166,0.28575 -0.359833,0.65617 -0.201083,0.35983 -0.465667,0.762 -0.264583,0.39158 -0.5715,0.80433 -0.296333,0.41275 -0.624416,0.79375 0.328083,0.3175 0.66675,0.73025 0.338666,0.41275 0.635,0.889 0.306916,0.46567 0.550333,0.96309 0.243417,0.48683 0.391583,0.9525 z"
         ></path>
      <path
         d="m 79.059011,117.88615 h 2.899833 v 1.28058 h -2.899833 z"
         ></path>
      <path
         d="m 87.864342,115.60015 q -0.455084,0.6985 -0.836084,1.31233 -0.381,0.61384 -0.709083,1.17475 -0.328083,0.55034 -0.624417,1.06892 -0.28575,0.508 -0.550333,1.00542 h 2.815167 v 1.0795 h -4.318 v -0.75142 q 0.232833,-0.45508 0.497416,-0.9525 0.264584,-0.508 0.592667,-1.0795 0.328083,-0.5715 0.709083,-1.23825 0.391584,-0.66675 0.85725,-1.44992 h -2.518833 v -1.0795 h 4.085167 z"
         ></path>
      <path
         d="m 90.319676,120.18273 q 0.05292,0.0106 0.116417,0.0106 0.0635,0 0.116417,0 0.4445,0 0.740833,-0.16934 0.306917,-0.16933 0.486833,-0.46566 0.1905,-0.29634 0.264584,-0.6985 0.08467,-0.41275 0.08467,-0.89959 0,-0.42333 -0.0635,-0.8255 -0.0635,-0.40216 -0.22225,-0.70908 -0.15875,-0.30692 -0.433916,-0.48683 -0.275167,-0.1905 -0.709084,-0.1905 -0.08467,0 -0.1905,0.0106 -0.105833,0 -0.1905,0.0212 z m 3.132667,-2.2225 q 0,0.91017 -0.232833,1.55575 -0.22225,0.635 -0.624417,1.03717 -0.402167,0.40217 -0.963083,0.59267 -0.550334,0.17991 -1.217084,0.17991 -0.34925,0 -0.687916,-0.0423 -0.328084,-0.0318 -0.709084,-0.11642 v -6.39233 q 0.4445,-0.0952 0.836084,-0.127 0.391583,-0.0318 0.73025,-0.0318 0.645583,0 1.17475,0.1905 0.53975,0.1905 0.910166,0.60325 0.370417,0.40217 0.5715,1.03717 0.211667,0.62441 0.211667,1.51341 z"
         ></path>
      <path
         d="m 97.537511,121.24107 -0.306917,-1.51342 h -1.74625 l -0.296333,1.51342 h -1.354667 q 0.465667,-1.93675 0.941917,-3.52425 0.47625,-1.59809 0.92075,-3.02684 h 1.418167 q 0.465666,1.43934 0.92075,3.05859 0.465666,1.60866 0.899583,3.4925 z m -1.164167,-5.28109 q -0.105833,0.37042 -0.201083,0.70909 -0.08467,0.32808 -0.169333,0.65616 -0.07408,0.3175 -0.148167,0.64559 -0.0635,0.32808 -0.127,0.67733 h 1.280583 q -0.0635,-0.34925 -0.127,-0.67733 -0.0635,-0.32809 -0.148166,-0.64559 -0.07408,-0.32808 -0.169334,-0.65616 -0.08467,-0.33867 -0.1905,-0.70909 z"
         ></path>
      <path
         d="m 102.78684,121.24107 q -0.4445,-1.09009 -0.97366,-2.16959 -0.51859,-1.09008 -1.12184,-2.18016 v 4.34975 h -1.174748 v -6.55109 h 1.047748 q 0.29634,0.46567 0.59267,1.016 0.29633,0.53975 0.5715,1.0795 0.28575,0.53975 0.51858,1.04775 0.24342,0.508 0.41275,0.889 v -4.03225 h 1.17475 v 6.55109 z"
         ></path>
      <path
         d="m 105.93009,117.96023 q 0,0.47625 0.0317,0.89959 0.0423,0.41275 0.14817,0.71966 0.11642,0.30692 0.3175,0.48684 0.20108,0.17991 0.53975,0.17991 0.32808,0 0.52917,-0.17991 0.21166,-0.17992 0.3175,-0.48684 0.11641,-0.3175 0.14816,-0.73025 0.0423,-0.41275 0.0423,-0.889 0,-0.47625 -0.0423,-0.889 -0.0318,-0.42333 -0.14816,-0.73025 -0.10584,-0.30691 -0.30692,-0.48683 -0.20108,-0.17992 -0.53975,-0.17992 -0.33867,0 -0.53975,0.17992 -0.20108,0.17992 -0.3175,0.49742 -0.10583,0.30691 -0.14817,0.71966 -0.0317,0.41275 -0.0317,0.889 z m -1.32291,0 q 0,-1.69333 0.62441,-2.55058 0.62442,-0.86783 1.73567,-0.86783 1.15358,0 1.75683,0.86783 0.60325,0.85725 0.60325,2.55058 0,1.69334 -0.61383,2.56117 -0.61383,0.85725 -1.73567,0.85725 -1.15358,0 -1.76741,-0.85725 -0.60325,-0.86783 -0.60325,-2.56117 z"
         ></path>
      <path
         d="m 112.74576,117.00773 q 0.0423,0.20109 0.127,0.49742 0.0847,0.29633 0.17992,0.65617 0.10583,0.35983 0.22225,0.77258 0.127,0.41275 0.24341,0.84667 0,-0.55034 -0.0106,-1.17475 -0.0106,-0.635 -0.0212,-1.29117 -0.0106,-0.65617 -0.0212,-1.32292 -0.0106,-0.67733 -0.0106,-1.30175 h 1.2065 q -0.0318,0.80434 -0.0635,1.66159 -0.0318,0.84666 -0.0741,1.69333 -0.0423,0.83608 -0.10583,1.651 -0.0529,0.81492 -0.127,1.54517 h -1.0795 q -0.23284,-0.66675 -0.46567,-1.42875 -0.23283,-0.77259 -0.46567,-1.47109 -0.23283,0.66675 -0.48683,1.44992 -0.254,0.78317 -0.46567,1.44992 h -1.0795 q -0.0847,-0.73025 -0.14816,-1.54517 -0.0635,-0.8255 -0.11642,-1.66158 -0.0423,-0.84667 -0.0741,-1.69334 -0.0318,-0.85725 -0.0529,-1.651 h 1.2065 q -0.0106,0.62442 -0.0212,1.29117 -0.0106,0.66675 -0.0212,1.3335 -0.0106,0.65617 -0.0212,1.29117 -0.0106,0.62441 -0.0106,1.17475 0.0953,-0.33867 0.21166,-0.74084 0.127,-0.40216 0.23284,-0.79375 0.11641,-0.39158 0.21166,-0.71966 0.0953,-0.32809 0.14817,-0.51859 z"
         ></path>
      <path
         d="m 115.47626,121.24107 v -1.0795 h 1.42875 v -4.39209 h -1.42875 v -1.0795 h 4.15925 v 1.0795 h -1.41817 v 4.39209 h 1.41817 v 1.0795 z"
         ></path>
      <path
         d="m 123.32909,121.37865 q -1.38642,0 -2.11667,-0.889 -0.73025,-0.889 -0.73025,-2.52942 0,-0.81491 0.22225,-1.44991 0.22225,-0.635 0.61384,-1.06892 0.40216,-0.4445 0.94191,-0.66675 0.55034,-0.23283 1.19592,-0.23283 0.34925,0 0.62442,0.0635 0.28575,0.0529 0.49741,0.127 0.21167,0.0741 0.34925,0.15875 0.14817,0.0847 0.22225,0.127 l -0.33866,1.03716 q -0.24342,-0.15875 -0.59267,-0.26458 -0.33867,-0.11642 -0.78317,-0.11642 -0.30691,0 -0.60325,0.11642 -0.28575,0.10583 -0.51858,0.37042 -0.22225,0.254 -0.37042,0.68791 -0.13758,0.43392 -0.13758,1.0795 0,1.12184 0.381,1.72509 0.39158,0.59266 1.27,0.59266 0.508,0 0.83608,-0.11641 0.33867,-0.11642 0.53975,-0.23284 l 0.32809,1.02659 q -0.27517,0.16933 -0.75142,0.3175 -0.46567,0.13758 -1.0795,0.13758 z"
         ></path>
      <path
         d="m 130.19768,115.60015 q -0.45509,0.6985 -0.83609,1.31233 -0.381,0.61384 -0.70908,1.17475 -0.32808,0.55034 -0.62442,1.06892 -0.28575,0.508 -0.55033,1.00542 h 2.81517 v 1.0795 h -4.318 v -0.75142 q 0.23283,-0.45508 0.49741,-0.9525 0.26459,-0.508 0.59267,-1.0795 0.32808,-0.5715 0.70908,-1.23825 0.39159,-0.66675 0.85725,-1.44992 h -2.51883 v -1.0795 h 4.08517 z"
         ></path>
    </g>
  </g>
</svg>
